<svg width="24" height="24" viewBox="0 0 24 24" fill="none" xmlns="http://www.w3.org/2000/svg">
<path d="M20.3635 12.7069C20.5509 12.5193 20.6563 12.265 20.6563 11.9999C20.6563 11.7347 20.5509 11.4804 20.3635 11.2929L14.7065 5.63586C14.6142 5.54035 14.5039 5.46416 14.3819 5.41175C14.2599 5.35935 14.1286 5.33176 13.9959 5.3306C13.8631 5.32945 13.7314 5.35475 13.6085 5.40503C13.4856 5.45531 13.374 5.52957 13.2801 5.62346C13.1862 5.71735 13.1119 5.829 13.0616 5.9519C13.0114 6.0748 12.9861 6.20648 12.9872 6.33926C12.9884 6.47204 13.016 6.60326 13.0684 6.72526C13.1208 6.84726 13.197 6.95761 13.2925 7.04986L17.2425 10.9999L3.99946 10.9999C3.73425 10.9999 3.47989 11.1052 3.29236 11.2927C3.10482 11.4803 2.99946 11.7346 2.99946 11.9999C2.99946 12.2651 3.10482 12.5194 3.29236 12.707C3.47989 12.8945 3.73425 12.9999 3.99946 12.9999L17.2425 12.9999L13.2925 16.9499C13.1103 17.1385 13.0095 17.3911 13.0118 17.6533C13.0141 17.9155 13.1192 18.1663 13.3046 18.3517C13.4901 18.5371 13.7409 18.6423 14.0031 18.6445C14.2653 18.6468 14.5179 18.546 14.7065 18.3639L20.3635 12.7069Z" fill="white"/>
</svg>
